<svg width="44" height="50" viewBox="0 0 44 50" fill="none" xmlns="http://www.w3.org/2000/svg">
<path d="M0 10C0 5.58172 3.58172 2 8 2H36C40.4183 2 44 5.58172 44 10V42C44 46.4183 40.4183 50 36 50H8C3.58172 50 0 46.4183 0 42V10Z" fill="#8083A4" fill-opacity="0.06"/>
<path fill-rule="evenodd" clip-rule="evenodd" d="M13 0C12.4477 0 12 0.447715 12 1V2H8C3.58172 2 0 5.58172 0 10V42C0 46.4183 3.58172 50 8 50H36C40.4183 50 44 46.4183 44 42V10C44 5.58172 40.4183 2 36 2H32V1C32 0.447715 31.5523 0 31 0C30.4477 0 30 0.447715 30 1V2H14V1C14 0.447715 13.5523 0 13 0ZM12 4V5C12 5.55228 12.4477 6 13 6C13.5523 6 14 5.55228 14 5V4H30V5C30 5.55228 30.4477 6 31 6C31.5523 6 32 5.55228 32 5V4H36C39.3137 4 42 6.68629 42 10L42 11H2V10C2 6.68629 4.68629 4 8 4H12ZM2 13V42C2 45.3137 4.68629 48 8 48H36C39.3137 48 42 45.3137 42 42L42 13H2Z" fill="#8083A4" fill-opacity="0.2"/>
<path d="M19.1338 28.136C19.1338 28.424 19.0378 28.6747 18.8458 28.888C18.6538 29.1013 18.3924 29.208 18.0618 29.208C17.7311 29.208 17.4698 29.1013 17.2778 28.888C17.0858 28.6747 16.9898 28.424 16.9898 28.136C16.9898 27.848 17.0858 27.5973 17.2778 27.384C17.4698 27.1707 17.7311 27.064 18.0618 27.064C18.3924 27.064 18.6538 27.1707 18.8458 27.384C19.0378 27.5973 19.1338 27.848 19.1338 28.136ZM23.0713 28.136C23.0713 28.424 22.9753 28.6747 22.7833 28.888C22.5913 29.1013 22.3299 29.208 21.9993 29.208C21.6686 29.208 21.4073 29.1013 21.2153 28.888C21.0233 28.6747 20.9273 28.424 20.9273 28.136C20.9273 27.848 21.0233 27.5973 21.2153 27.384C21.4073 27.1707 21.6686 27.064 21.9993 27.064C22.3299 27.064 22.5913 27.1707 22.7833 27.384C22.9753 27.5973 23.0713 27.848 23.0713 28.136ZM27.0088 28.136C27.0088 28.424 26.9128 28.6747 26.7208 28.888C26.5288 29.1013 26.2674 29.208 25.9368 29.208C25.6061 29.208 25.3448 29.1013 25.1528 28.888C24.9608 28.6747 24.8648 28.424 24.8648 28.136C24.8648 27.848 24.9608 27.5973 25.1528 27.384C25.3448 27.1707 25.6061 27.064 25.9368 27.064C26.2674 27.064 26.5288 27.1707 26.7208 27.384C26.9128 27.5973 27.0088 27.848 27.0088 28.136Z" fill="#8083A4"/>
</svg>
